<svg id="svg" version="1.1" xmlns="http://www.w3.org/2000/svg" xmlns:xlink="http://www.w3.org/1999/xlink" width="400" height="276.71875" viewBox="0, 0, 400,276.71875"><g id="svgg"><path id="path0" d="M161.500 138.333 C 161.500 170.600,161.545 197.000,161.600 197.000 C 161.656 197.000,162.799 196.374,164.142 195.609 C 167.458 193.719,187.795 182.060,199.667 175.242 C 203.471 173.058,207.333 170.847,208.250 170.329 C 209.167 169.811,211.192 168.652,212.750 167.752 C 214.308 166.852,218.358 164.525,221.750 162.582 C 225.142 160.639,231.029 157.262,234.833 155.079 C 238.637 152.895,242.500 150.684,243.417 150.164 C 244.333 149.645,247.408 147.882,250.250 146.248 C 253.092 144.613,255.904 143.001,256.500 142.665 C 260.368 140.488,263.833 138.441,263.833 138.333 C 263.833 138.226,260.368 136.179,256.500 134.001 C 255.904 133.666,253.092 132.054,250.250 130.419 C 247.408 128.784,244.333 127.022,243.417 126.502 C 242.500 125.983,238.900 123.921,235.417 121.922 C 231.933 119.922,226.046 116.545,222.333 114.419 C 218.621 112.292,214.308 109.815,212.750 108.915 C 211.192 108.015,209.167 106.855,208.250 106.337 C 207.333 105.818,203.471 103.607,199.667 101.423 C 187.321 94.335,167.322 82.870,164.142 81.058 C 162.799 80.293,161.656 79.667,161.600 79.667 C 161.545 79.667,161.500 106.067,161.500 138.333 " stroke="none" fill="#fcfbfb" fill-rule="evenodd"></path><path id="path1" d="M183.000 0.947 C 174.798 0.995,155.151 1.307,147.833 1.505 C 139.496 1.731,127.071 2.142,125.250 2.253 C 124.425 2.303,121.200 2.415,118.083 2.501 C 110.418 2.713,95.044 3.636,86.167 4.418 C 84.654 4.551,82.217 4.741,80.750 4.840 C 77.162 5.082,71.822 5.594,67.667 6.095 C 50.714 8.135,44.755 9.269,39.917 11.374 C 39.092 11.733,38.154 12.139,37.833 12.275 C 36.922 12.663,35.309 13.472,34.667 13.863 C 34.346 14.058,33.325 14.663,32.399 15.207 C 31.473 15.751,30.530 16.367,30.304 16.577 C 30.078 16.787,29.561 17.167,29.155 17.421 C 27.211 18.641,21.333 24.257,20.101 26.072 C 19.873 26.409,19.400 27.024,19.051 27.438 C 18.355 28.265,15.009 33.482,15.004 33.751 C 15.002 33.843,14.545 34.809,13.989 35.898 C 12.784 38.256,11.038 43.352,10.441 46.250 C 9.223 52.167,7.743 60.860,7.503 63.500 C 7.424 64.371,7.169 66.471,6.936 68.167 C 5.959 75.276,5.365 81.358,4.664 91.417 C 3.369 109.994,2.971 121.189,2.967 139.083 C 2.962 159.327,3.325 168.266,5.171 193.333 C 5.398 196.422,6.206 203.559,6.849 208.167 C 7.124 210.137,7.417 212.463,7.501 213.333 C 7.682 215.220,8.050 217.417,9.179 223.333 C 10.982 232.781,11.990 236.376,13.970 240.417 C 14.374 241.242,14.872 242.292,15.077 242.750 C 16.037 244.900,18.907 249.117,21.400 252.040 C 23.345 254.321,28.191 258.927,28.879 259.149 C 28.992 259.185,29.542 259.578,30.104 260.021 C 35.767 264.498,45.994 268.242,55.083 269.166 C 56.000 269.260,57.500 269.445,58.417 269.578 C 64.044 270.397,73.774 271.445,77.741 271.661 C 79.304 271.746,82.946 272.004,85.833 272.234 C 96.637 273.096,111.409 273.936,119.833 274.167 C 122.996 274.254,127.458 274.401,129.750 274.493 C 173.297 276.250,233.410 276.284,275.167 274.575 C 278.512 274.438,283.650 274.255,286.583 274.167 C 294.529 273.930,308.139 273.068,318.333 272.155 C 320.396 271.970,323.171 271.751,324.500 271.667 C 327.537 271.476,333.248 270.822,338.333 270.083 C 340.487 269.770,342.887 269.430,343.667 269.328 C 346.172 268.997,350.466 268.152,352.553 267.579 C 353.670 267.272,354.921 266.931,355.333 266.821 C 357.645 266.205,363.241 263.689,365.285 262.346 C 365.853 261.973,366.379 261.667,366.452 261.667 C 366.526 261.667,367.260 261.177,368.084 260.578 C 368.909 259.979,369.771 259.363,370.000 259.210 C 370.406 258.938,371.676 257.900,372.815 256.909 C 373.814 256.039,376.890 252.930,377.762 251.908 C 379.282 250.126,382.012 246.365,382.366 245.565 C 382.483 245.300,382.917 244.517,383.331 243.825 C 385.030 240.985,387.019 235.996,387.813 232.583 C 390.272 222.021,392.105 209.622,393.911 191.333 C 394.576 184.606,394.985 178.320,395.666 164.333 C 396.261 152.146,396.436 129.840,396.026 118.500 C 395.803 112.323,395.387 103.590,395.248 102.167 C 395.199 101.662,395.087 99.563,395.000 97.500 C 394.773 92.138,394.051 84.243,393.004 75.667 C 392.741 73.512,392.479 71.167,392.422 70.454 C 392.232 68.077,389.812 53.555,389.084 50.417 C 387.215 42.368,387.032 41.713,385.844 38.791 C 385.380 37.651,385.000 36.658,385.000 36.585 C 385.000 36.512,384.494 35.515,383.875 34.368 C 383.256 33.222,382.514 31.840,382.226 31.296 C 381.937 30.753,381.553 30.145,381.372 29.946 C 381.190 29.746,380.753 29.133,380.400 28.583 C 380.047 28.033,379.323 27.038,378.791 26.371 C 378.259 25.704,377.662 24.954,377.463 24.704 C 375.390 22.095,368.881 16.487,366.103 14.917 C 365.617 14.642,364.663 14.083,363.985 13.676 C 363.306 13.269,362.152 12.683,361.422 12.375 C 360.692 12.066,360.017 11.752,359.922 11.676 C 359.663 11.470,355.919 10.000,355.650 10.000 C 355.522 9.999,354.254 9.622,352.833 9.161 C 347.527 7.440,335.035 5.691,321.917 4.832 C 320.450 4.737,316.737 4.474,313.667 4.250 C 287.016 2.304,227.076 0.620,193.583 0.876 C 191.017 0.896,186.254 0.928,183.000 0.947 M163.021 80.270 C 163.789 80.693,165.110 81.443,165.958 81.936 C 166.806 82.430,168.194 83.237,169.042 83.730 C 169.890 84.224,171.183 84.962,171.917 85.371 C 172.650 85.779,174.487 86.827,176.000 87.699 C 180.879 90.511,192.551 97.202,193.667 97.826 C 194.262 98.159,195.463 98.850,196.333 99.362 C 198.042 100.366,204.045 103.807,206.750 105.333 C 207.667 105.850,209.692 107.012,211.250 107.915 C 212.808 108.818,214.646 109.872,215.333 110.256 C 216.021 110.641,216.996 111.200,217.500 111.500 C 218.004 111.800,218.979 112.360,219.667 112.746 C 220.354 113.131,222.192 114.184,223.750 115.085 C 225.308 115.986,227.333 117.149,228.250 117.669 C 229.167 118.190,232.242 119.952,235.083 121.585 C 237.925 123.218,240.850 124.889,241.583 125.298 C 242.317 125.706,243.517 126.397,244.250 126.831 C 245.596 127.630,247.836 128.917,253.167 131.954 C 254.771 132.868,257.358 134.353,258.917 135.255 C 260.475 136.156,262.294 137.193,262.958 137.558 C 263.623 137.923,264.167 138.272,264.167 138.333 C 264.167 138.394,263.623 138.743,262.958 139.109 C 262.294 139.474,260.475 140.510,258.917 141.412 C 257.358 142.314,254.771 143.799,253.167 144.713 C 247.836 147.750,245.596 149.037,244.250 149.835 C 243.517 150.270,242.317 150.960,241.583 151.369 C 240.850 151.778,237.925 153.448,235.083 155.081 C 232.242 156.714,229.167 158.477,228.250 158.997 C 227.333 159.518,225.308 160.681,223.750 161.582 C 222.192 162.483,220.354 163.535,219.667 163.921 C 218.979 164.307,218.004 164.867,217.500 165.167 C 216.996 165.466,216.021 166.026,215.333 166.411 C 214.646 166.795,212.808 167.849,211.250 168.751 C 209.692 169.654,207.667 170.816,206.750 171.333 C 204.045 172.860,198.042 176.301,196.333 177.305 C 195.463 177.816,194.262 178.507,193.667 178.841 C 192.551 179.465,180.879 186.156,176.000 188.968 C 174.487 189.840,172.650 190.888,171.917 191.296 C 171.183 191.705,169.890 192.443,169.042 192.936 C 168.194 193.430,166.806 194.237,165.958 194.730 C 164.149 195.783,161.653 197.167,161.563 197.167 C 161.528 197.167,161.500 170.692,161.500 138.333 C 161.500 105.975,161.528 79.500,161.563 79.500 C 161.598 79.500,162.254 79.846,163.021 80.270 " stroke="none" fill="#fc0404" fill-rule="evenodd"></path><path id="path2" d="" stroke="none" fill="#fc5f5f" fill-rule="evenodd"></path><path id="path3" d="" stroke="none" fill="#fc8484" fill-rule="evenodd"></path><path id="path4" d="" stroke="none" fill="#fc7c7c" fill-rule="evenodd"></path></g></svg>